# xmcd CD database file
#
# Track frame offsets:
#	150
#	16773
#	31709
#	45547
#	62969
#	76160
#	87567
#	103478
#	116189
#	132478
#	146003
#	159758
#	171243
#	183733
#
# Disc length: 2716 seconds
#
# Revision: 1
# Processed by: cddbd v1.4PL0 Copyright (c) Steve Scherf et al.
# Submitted via: CDex 1.40Release
#
DISCID=bf0a9a0e
DTITLE=Jonny Hill - Überall
DYEAR=1900
DGENRE=Country
TTITLE0=Wieviel wert sind 20 Jahre
TTITLE1=Lass mich sein win ich bin
TTITLE2=Suchst du Gold
TTITLE3=Sie waren sich zu spät begegnet
TTITLE4=Ich bin wieder zu hause
TTITLE5=Der Joker
TTITLE6=Nimm mich mit in dein Leben
TTITLE7=Überall
TTITLE8=Wir Lieben uns
TTITLE9=Mutter meiner Kinder
TTITLE10=Wir beide werden niemals alt
TTITLE11=Lichter auf den hügeln
TTITLE12=Hat er das recht sie zu berühr´n ?
TTITLE13=Hallo Teddybär
EXTD=ID3G: 2
EXTT0=
EXTT1=
EXTT2=
EXTT3=
EXTT4=
EXTT5=
EXTT6=
EXTT7=
EXTT8=
EXTT9=
EXTT10=
EXTT11=
EXTT12=
EXTT13=
PLAYORDER=
